<?xml version="1.0" standalone="no"?>
<!DOCTYPE svg PUBLIC "-//W3C//DTD SVG 20010904//EN"
 "http://www.w3.org/TR/2001/REC-SVG-20010904/DTD/svg10.dtd">
<svg version="1.0" xmlns="http://www.w3.org/2000/svg"
 width="512.000000pt" height="512.000000pt" viewBox="0 0 512.000000 512.000000"
 preserveAspectRatio="xMidYMid meet">

<g transform="translate(0.000000,512.000000) scale(0.100000,-0.100000)"
fill="#000000" stroke="none">
<path d="M2485 5111 c-92 -24 -173 -90 -215 -176 -24 -48 -25 -60 -28 -267
l-3 -217 -57 -11 c-107 -20 -294 -80 -401 -128 -431 -193 -780 -542 -973 -973
-48 -107 -108 -294 -128 -401 l-11 -56 -217 -4 c-206 -3 -219 -5 -267 -28
-238 -117 -246 -442 -15 -569 l65 -36 217 -3 217 -4 11 -56 c20 -107 80 -294
128 -401 253 -566 775 -984 1374 -1101 l56 -11 4 -217 c3 -200 5 -220 26 -262
35 -71 75 -114 144 -151 58 -31 70 -34 148 -34 78 0 90 3 148 34 70 38 100 69
140 145 26 50 27 55 30 267 l4 216 101 23 c730 163 1314 761 1457 1492 l11 56
217 4 c213 3 218 4 268 30 76 40 107 70 145 140 31 58 34 70 34 148 0 78 -3
90 -34 148 -37 69 -80 109 -151 144 -42 21 -62 23 -262 26 l-217 4 -11 56
c-20 107 -80 294 -128 401 -249 558 -756 970 -1349 1096 l-81 18 -4 216 -3
216 -34 63 c-57 105 -144 160 -260 167 -36 2 -79 1 -96 -4z m345 -1300 c329
-75 610 -267 797 -546 85 -126 154 -293 189 -455 26 -119 26 -381 0 -500 -35
-162 -104 -329 -189 -455 -56 -83 -77 -108 -170 -203 -170 -172 -396 -294
-647 -348 -119 -26 -381 -26 -500 0 -512 110 -896 494 -1006 1006 -26 119 -26
381 0 500 79 368 304 678 625 861 135 78 308 137 463 159 98 14 340 3 438 -19z"/>
<path d="M2420 3184 c-111 -23 -224 -86 -311 -173 -251 -252 -252 -650 0 -901
253 -252 649 -253 901 0 253 252 253 647 0 901 -155 156 -374 220 -590 173z"/>
</g>
</svg>
