<svg width="20" height="19" viewBox="0 0 20 19" fill="none" xmlns="http://www.w3.org/2000/svg">
<path d="M18.188 9.06672H10.7464C10.605 9.06672 10.471 9.09566 10.3445 9.13949L12.434 7.05005C12.668 6.81604 12.7961 6.50432 12.7961 6.17278C12.7961 5.84121 12.6679 5.52949 12.434 5.29552L7.48947 0.35099C7.0223 -0.116997 6.20207 -0.116997 5.7349 0.35099L0.790373 5.29548C0.556398 5.52949 0.428223 5.84121 0.428223 6.17278C0.428223 6.50435 0.556398 6.81607 0.790373 7.05005L5.7349 11.9946C5.96891 12.2286 6.27978 12.3567 6.61217 12.3567C6.94455 12.3567 7.25546 12.2285 7.48943 11.9946L9.57887 9.90513C9.53505 10.0316 9.5061 10.1656 9.5061 10.307V17.7486C9.5061 18.4324 10.0626 18.9888 10.7464 18.9888H18.188C18.8718 18.9888 19.4282 18.4324 19.4282 17.7486V10.307C19.4282 9.62318 18.8718 9.06672 18.188 9.06672ZM7.19675 10.0647C7.03551 10.2259 6.82384 10.3061 6.61217 10.3061C6.40049 10.3061 6.18882 10.2259 6.02758 10.0647C5.70429 9.74222 5.70429 9.21801 6.02758 8.89553C6.35006 8.57224 6.87427 8.57224 7.19675 8.89553C7.52005 9.21801 7.52005 9.74226 7.19675 10.0647ZM7.19675 6.75737C7.03551 6.91861 6.82384 6.9988 6.61217 6.9988C6.40049 6.9988 6.18882 6.91861 6.02758 6.75737C5.70429 6.43489 5.70429 5.91068 6.02758 5.5882C6.35006 5.2649 6.87427 5.2649 7.19675 5.5882C7.52005 5.91068 7.52005 6.43489 7.19675 6.75737ZM7.19675 3.44999C7.03551 3.61123 6.82384 3.69143 6.61217 3.69143C6.40049 3.69143 6.18882 3.61123 6.02758 3.44999C5.70429 3.12751 5.70429 2.60331 6.02758 2.28083C6.35006 1.95753 6.87427 1.95753 7.19675 2.28083C7.52005 2.60331 7.52005 3.12751 7.19675 3.44999ZM11.9866 17.3351C11.5311 17.3351 11.1598 16.9647 11.1598 16.5083C11.1598 16.0519 11.5311 15.6815 11.9866 15.6815C12.4422 15.6815 12.8135 16.0519 12.8135 16.5083C12.8135 16.9647 12.4422 17.3351 11.9866 17.3351ZM11.9866 12.3741C11.5311 12.3741 11.1598 12.0037 11.1598 11.5473C11.1598 11.0909 11.5311 10.7204 11.9866 10.7204C12.4422 10.7204 12.8135 11.0909 12.8135 11.5473C12.8135 12.0037 12.4422 12.3741 11.9866 12.3741ZM14.4672 14.8546C14.0116 14.8546 13.6403 14.4842 13.6403 14.0278C13.6403 13.5714 14.0116 13.201 14.4672 13.201C14.9228 13.201 15.294 13.5714 15.294 14.0278C15.294 14.4842 14.9228 14.8546 14.4672 14.8546ZM16.9477 17.3351C16.4921 17.3351 16.1208 16.9647 16.1208 16.5083C16.1208 16.0519 16.4921 15.6815 16.9477 15.6815C17.4033 15.6815 17.7745 16.0519 17.7745 16.5083C17.7746 16.9647 17.4033 17.3351 16.9477 17.3351ZM16.9477 12.3741C16.4921 12.3741 16.1208 12.0037 16.1208 11.5473C16.1208 11.0909 16.4921 10.7204 16.9477 10.7204C17.4033 10.7204 17.7745 11.0909 17.7745 11.5473C17.7746 12.0037 17.4033 12.3741 16.9477 12.3741Z" fill="#2F3E46"/>
</svg>
