<svg width="26" height="20" viewBox="0 0 26 20" fill="none" xmlns="http://www.w3.org/2000/svg">
<path d="M16.336 18.378L9.07581 19.8301V1.67958L16.336 0.227536V18.378ZM7.26076 1.58882L1.12589 0.0278804C0.991942 -0.00610922 0.852005 -0.00906175 0.716747 0.019248C0.581489 0.0475578 0.454483 0.106382 0.345413 0.191235C0.233545 0.279493 0.144031 0.392854 0.0841181 0.522139C0.0242055 0.651424 -0.00442192 0.793 0.00055345 0.935406V17.2709C-0.00548647 17.4782 0.0596634 17.6813 0.185157 17.8464C0.31065 18.0115 0.488915 18.1287 0.690273 18.1784L7.26076 19.7938V1.58882ZM24.7215 1.84293L18.1511 0.227536V18.4325L24.2859 19.9934C24.3583 20.0022 24.4314 20.0022 24.5037 19.9934C24.7444 19.9934 24.9753 19.8978 25.1455 19.7276C25.3157 19.5574 25.4113 19.3266 25.4113 19.0859V2.75046C25.4173 2.54315 25.3522 2.34002 25.2267 2.1749C25.1012 2.00978 24.9229 1.89262 24.7215 1.84293V1.84293Z" fill="#E4EDDF"/>
</svg>
