<svg width="17" height="20" viewBox="0 0 17 20" fill="none" xmlns="http://www.w3.org/2000/svg">
<path d="M8.09228 9.48803C9.39576 9.48803 10.5245 9.02052 11.4467 8.09814C12.3689 7.17591 12.8364 6.04749 12.8364 4.74386C12.8364 3.44068 12.3689 2.31212 11.4466 1.38959C10.5242 0.467504 9.39561 0 8.09228 0C6.78865 0 5.66024 0.467504 4.738 1.38974C3.81577 2.31197 3.34811 3.44053 3.34811 4.74386C3.34811 6.04749 3.81577 7.17606 4.73815 8.09829C5.66054 9.02037 6.7891 9.48803 8.09228 9.48803Z" fill="#E4EDDF"/>
<path d="M16.3933 15.1459C16.3667 14.7621 16.3129 14.3435 16.2337 13.9014C16.1538 13.456 16.0508 13.0349 15.9276 12.65C15.8003 12.2523 15.6272 11.8594 15.4132 11.483C15.1911 11.0923 14.9302 10.7521 14.6375 10.4721C14.3314 10.1792 13.9566 9.94374 13.5232 9.77197C13.0913 9.60111 12.6127 9.51455 12.1007 9.51455C11.8996 9.51455 11.7052 9.59706 11.3296 9.84155C11.0985 9.99228 10.8282 10.1666 10.5264 10.3594C10.2684 10.5238 9.91886 10.6778 9.48713 10.8173C9.06591 10.9536 8.63823 11.0227 8.2161 11.0227C7.79398 11.0227 7.36645 10.9536 6.94478 10.8173C6.5135 10.678 6.16396 10.5239 5.90624 10.3595C5.60734 10.1685 5.33685 9.99423 5.10227 9.8414C4.72718 9.5969 4.53258 9.5144 4.33151 9.5144C3.81938 9.5144 3.3409 9.60111 2.90916 9.77212C2.47607 9.94359 2.10114 10.1791 1.79473 10.4723C1.50214 10.7524 1.24112 11.0924 1.01931 11.483C0.805471 11.8594 0.632355 12.2521 0.504922 12.6502C0.381847 13.035 0.278909 13.456 0.198963 13.9014C0.119769 14.3429 0.0659705 14.7617 0.0393719 15.1464C0.0132242 15.5233 0 15.9144 0 16.3095C0 17.3377 0.326847 18.1701 0.971374 18.7839C1.60794 19.3897 2.45022 19.697 3.4745 19.697H12.9586C13.9829 19.697 14.8249 19.3898 15.4616 18.7839C16.1063 18.1705 16.4331 17.338 16.4331 16.3094C16.433 15.9125 16.4196 15.521 16.3933 15.1459Z" fill="#E4EDDF"/>
</svg>
