<svg width="26" height="26" viewBox="0 0 26 26" fill="none" xmlns="http://www.w3.org/2000/svg">
<path d="M20.9936 0C18.6784 0 16.7949 1.88357 16.7949 4.1987C16.7949 6.20689 19.7702 10.2714 20.4673 11.1964C20.4671 11.4953 20.4673 11.7887 20.4601 12.0579C20.4524 12.3475 20.681 12.589 20.971 12.5966C20.9757 12.5966 20.9803 12.5966 20.9854 12.5966C21.2683 12.5966 21.502 12.3706 21.5097 12.0856C21.517 11.8093 21.5168 11.5077 21.517 11.2004C22.2094 10.2816 25.1923 6.20926 25.1923 4.1987C25.1923 1.88357 23.3087 0 20.9936 0ZM20.9936 5.24841C20.4149 5.24841 19.9439 4.77738 19.9439 4.19874C19.9439 3.62011 20.4149 3.14908 20.9936 3.14908C21.5722 3.14908 22.0432 3.62006 22.0432 4.1987C22.0432 4.77738 21.5722 5.24841 20.9936 5.24841Z" fill="#E4EDDF"/>
<path d="M16.065 15.1264C15.1988 15.618 14.7176 16.4713 14.4305 17.07C14.3049 17.3314 14.4151 17.6451 14.6765 17.7701C14.7498 17.8055 14.8272 17.8219 14.9031 17.8219C15.0988 17.8219 15.2864 17.7122 15.3766 17.5241C15.741 16.764 16.1132 16.3063 16.5836 16.0387C16.8353 15.8957 16.924 15.5754 16.7805 15.3232C16.638 15.0711 16.3187 14.9824 16.065 15.1264Z" fill="#E4EDDF"/>
<path d="M11.2886 22.7459C10.7628 23.1626 10.1652 23.4763 9.46093 23.7054C9.18519 23.7951 9.03448 24.0913 9.12418 24.3671C9.19646 24.5885 9.40198 24.7294 9.6234 24.7294C9.67722 24.7294 9.73204 24.7212 9.78587 24.7038C10.5993 24.4393 11.324 24.0575 11.9406 23.569C12.1677 23.3886 12.2061 23.0585 12.0262 22.8315C11.8447 22.605 11.5152 22.5645 11.2886 22.7459Z" fill="#E4EDDF"/>
<path d="M14.2481 18.9157C13.9764 18.8101 13.674 18.945 13.5689 19.2156C13.3337 19.8234 13.0395 20.5323 12.6428 21.1817C12.4916 21.4292 12.57 21.7521 12.8171 21.9033C12.9027 21.9556 12.997 21.9802 13.0902 21.9802C13.2671 21.9802 13.4398 21.891 13.5387 21.7291C13.9785 21.0085 14.2957 20.2458 14.5479 19.5949C14.6525 19.3247 14.5182 19.0208 14.2481 18.9157Z" fill="#E4EDDF"/>
<path d="M20.7988 13.8273C20.5604 13.6659 20.2329 13.7279 20.0699 13.9677C19.8972 14.223 19.5435 14.5741 18.4739 14.6699C18.1853 14.696 17.9721 14.9508 17.9982 15.2398C18.0228 15.5125 18.2519 15.7175 18.5205 15.7175C18.5364 15.7175 18.5523 15.717 18.5682 15.7154C19.7045 15.6134 20.4799 15.2342 20.9392 14.5561C21.1017 14.3162 21.0386 13.9898 20.7988 13.8273Z" fill="#E4EDDF"/>
<path d="M7.54169 24.1494C9.19774 22.3834 12.5961 18.3206 12.5961 14.6955C12.5961 11.1641 9.82947 8.39746 6.29807 8.39746C2.76667 8.39746 2.86102e-06 11.1641 2.86102e-06 14.6955C2.86102e-06 19.3509 5.61257 24.7403 5.92624 25.0376C5.92624 25.0376 5.92752 25.0389 5.92811 25.0395C5.92983 25.0411 5.93642 25.0475 5.9378 25.0488C5.9595 25.0694 5.98656 25.079 6.01062 25.0951C6.04039 25.1152 6.06731 25.1389 6.10101 25.1526C6.16424 25.1783 6.23086 25.1923 6.29807 25.1923C6.68043 25.1923 7.0438 25.179 7.38823 25.1528C7.6773 25.1308 7.89409 24.8791 7.87205 24.59C7.8563 24.3832 7.72242 24.2218 7.54169 24.1494ZM6.29807 17.8446C4.56158 17.8446 3.14904 16.432 3.14904 14.6955C3.14904 12.959 4.56158 11.5465 6.29807 11.5465C8.03457 11.5465 9.4471 12.959 9.4471 14.6955C9.4471 16.432 8.03457 17.8446 6.29807 17.8446Z" fill="#E4EDDF"/>
</svg>
